# xmcd
#
# Track frame offsets: 
#        150
#        14000
#        30191
#        41171
#        60969
#        81202
#        96223
#        110067
#        122613
#        136099
#        146624
#        160191
#        173043
#        188120
#
# Disc length: 2667 seconds
#
# Revision: 8
# Processed by: cddbd v1.5.2PL0 Copyright (c) Steve Scherf et al.
# Submitted via: ExactAudioCopy v1.0b3
#
DISCID=b20a690e
DTITLE=Chet Baker - Chet Baker Sings
DYEAR=1956
DGENRE=Jazz
TTITLE0=That Old Feeling
TTITLE1=It's Always You
TTITLE2=Like Someone In Love
TTITLE3=My Ideal
TTITLE4=I've Never Been In Love Before
TTITLE5=My Buddy
TTITLE6=But Not For Me
TTITLE7=Time After Time 
TTITLE8=I Get Along Without You Very Well
TTITLE9=My Funny Valentine
TTITLE10=There Will Never Be Another You
TTITLE11=The Thrill Is Gone
TTITLE12=I Fall In Love Too Easily
TTITLE13=Look For The Silver Lining
EXTD=YEAR: 1956\nEMI Music Japan Inc.\n50th Anniversay\nTOCJ-50030\nP
EXTD=J1222\n4988006-882546\n\n
EXTT0=
EXTT1=
EXTT2=
EXTT3=
EXTT4=
EXTT5=
EXTT6=
EXTT7=
EXTT8=
EXTT9=
EXTT10=
EXTT11=
EXTT12=
EXTT13=
PLAYORDER=
